<svg width="30" height="30" viewBox="0 0 30 30" fill="none" xmlns="http://www.w3.org/2000/svg">
<circle cx="15" cy="15" r="15" fill="#E9E9E9"/>
<path d="M15.0003 13.3337C16.8413 13.3337 18.3337 11.8413 18.3337 10.0003C18.3337 8.15938 16.8413 6.66699 15.0003 6.66699C13.1594 6.66699 11.667 8.15938 11.667 10.0003C11.667 11.8413 13.1594 13.3337 15.0003 13.3337Z" stroke="#BCBCBC" stroke-width="1.3"/>
<path d="M21.6643 20.0007C21.6668 19.864 21.6668 19.7248 21.6668 19.584C21.6668 17.5132 18.6818 15.834 15.0002 15.834C11.3185 15.834 8.3335 17.5132 8.3335 19.584C8.3335 21.6548 8.3335 23.334 15.0002 23.334C16.8593 23.334 18.2002 23.2032 19.1668 22.9698" stroke="#BCBCBC" stroke-width="1.3" stroke-linecap="round"/>
</svg>
