<svg width="202" height="263" viewBox="0 0 202 263" fill="none" xmlns="http://www.w3.org/2000/svg">
<path d="M55.2774 41.2137C58.0427 41.2724 60.7909 40.7669 63.3521 39.7285C65.9134 38.6901 68.2334 37.1407 70.1689 35.1761C72.1233 33.2868 73.6681 31.0198 74.7083 28.5147C75.7484 26.0095 76.2619 23.3192 76.2171 20.6093C76.2619 17.8994 75.7484 15.2091 74.7083 12.7039C73.6681 10.1988 72.1233 7.93178 70.1689 6.04249C66.2551 2.1771 60.9625 0.00772095 55.446 0.00772095C49.9296 0.00772095 44.637 2.1771 40.7231 6.04249C38.7211 7.90537 37.1319 10.1631 36.0573 12.6713C34.9827 15.1796 34.4462 17.8832 34.4822 20.6093C34.4369 23.3301 34.9621 26.0305 36.0241 28.5384C37.0862 31.0464 38.6619 33.3069 40.6509 35.1761C42.5496 37.1161 44.8254 38.6518 47.3399 39.6898C49.8544 40.7277 52.555 41.2462 55.2774 41.2137Z" fill="#0A1A49"/>
<path d="M147.302 41.2137C150.067 41.2724 152.815 40.7669 155.377 39.7285C157.938 38.6901 160.258 37.1408 162.193 35.1761C164.156 33.2915 165.707 31.0259 166.752 28.52C167.796 26.0142 168.312 23.3215 168.266 20.6093C168.312 17.8971 167.796 15.2045 166.752 12.6986C165.707 10.1928 164.156 7.92716 162.193 6.04253C158.287 2.17278 152.997 0 147.482 0C141.968 0 136.678 2.17278 132.772 6.04253C130.778 7.90962 129.198 10.1692 128.132 12.6773C127.066 15.1853 126.537 17.8868 126.579 20.6093C126.534 23.3301 127.059 26.0305 128.121 28.5385C129.183 31.0464 130.759 33.3069 132.748 35.1761C134.636 37.1096 136.9 38.6417 139.402 39.6795C141.903 40.7173 144.591 41.2392 147.302 41.2137Z" fill="#0A1A49"/>
<path d="M202 248.599L164.024 183.192C164.265 157.988 164.169 150.393 164.024 125.236C164.024 103.913 163.855 81.8473 164.024 60.2606C164.024 59.3981 164.024 58.6075 164.024 57.9846C164.096 57.2516 164.096 56.5133 164.024 55.7804H130.289V84.5307H72.506V55.7804H38.3133C38.2424 56.5774 38.2424 57.3792 38.3133 58.1762C38.3133 58.8311 38.3133 59.6297 38.3133 60.5721C38.4578 83.2129 38.3133 106.381 38.3133 128.782C38.3133 152.597 38.1205 158.994 38.3133 182.641L0 248.671L24.5542 262.758L55.3976 209.642L86.1928 262.687L101.012 254.181L115.831 262.687L146.651 209.642L177.446 262.687L202 248.599ZM101.012 231.828L72.506 182.737V117.785H130.554V180.988L101.012 231.828Z" fill="#0A1A49"/>
</svg>
