<svg width="330" height="84" viewBox="0 0 330 84" fill="none" xmlns="http://www.w3.org/2000/svg">
<path d="M19.4922 53.8192C17.0616 53.8874 14.6429 53.4574 12.3867 52.5562C10.1304 51.6549 8.08476 50.3016 6.37714 48.5804C4.67148 46.9021 3.32792 44.8955 2.42855 42.6834C1.52918 40.4713 1.09289 38.1001 1.14634 35.7147C1.09066 33.3256 1.52583 30.9503 2.42524 28.7342C3.32465 26.5181 4.66937 24.5078 6.37714 22.8262C8.08909 21.1134 10.1363 19.7681 12.3922 18.8735C14.6481 17.9789 17.0646 17.5541 19.4922 17.6254C24.2808 17.6254 28.2331 18.9445 31.3492 21.5829C34.4752 24.2625 36.6203 27.8963 37.4493 31.9164H26.6064C25.0814 28.6816 22.71 27.0643 19.4922 27.0643C18.4489 27.0296 17.4103 27.2189 16.4471 27.6193C15.484 28.0196 14.6189 28.6216 13.9107 29.3842C12.4721 30.9359 11.7528 33.0511 11.7528 35.7299C11.7528 38.4086 12.4721 40.5239 13.9107 42.0755C14.6172 42.8407 15.4818 43.4449 16.4453 43.8467C17.4087 44.2484 18.4481 44.4382 19.4922 44.403C22.7049 44.403 25.0763 42.7831 26.6064 39.5433H37.4874C36.66 43.5662 34.5148 47.2029 31.3873 49.8844C28.2509 52.5076 24.2859 53.8192 19.4922 53.8192Z" fill="#0A1A49"/>
<path d="M105.61 53.8192C103.421 53.8396 101.254 53.3738 99.2687 52.4557C97.2834 51.5375 95.5292 50.1903 94.1343 48.5122C91.0086 44.9948 89.3266 40.4378 89.422 35.745C89.3129 31.0377 90.9929 26.4625 94.1267 22.9324C95.5213 21.252 97.2765 19.9033 99.2635 18.985C101.25 18.0667 103.419 17.6021 105.61 17.6253C109.606 17.6253 112.767 19.0355 115.096 21.8558V18.3835H125.626V53.0535H115.088V49.5887C112.76 52.409 109.6 53.8192 105.61 53.8192ZM102.217 41.886C102.962 42.6558 103.855 43.2681 104.844 43.6864C105.832 44.1047 106.896 44.3203 107.97 44.3203C109.044 44.3203 110.108 44.1047 111.096 43.6864C112.085 43.2681 112.978 42.6558 113.723 41.886C115.226 40.1856 116.015 37.9765 115.927 35.7147C116.012 33.4532 115.224 31.2449 113.723 29.5434C112.977 28.7755 112.083 28.1648 111.095 27.7477C110.106 27.3307 109.044 27.1157 107.97 27.1157C106.896 27.1157 105.833 27.3307 104.845 27.7477C103.857 28.1648 102.963 28.7755 102.217 29.5434C100.722 31.2476 99.9363 33.4547 100.021 35.7147C99.9339 37.975 100.72 40.1829 102.217 41.886Z" fill="#0A1A49"/>
<path d="M139.503 13.6603C138.65 13.6634 137.806 13.4958 137.02 13.1676C136.234 12.8394 135.523 12.3572 134.928 11.7497C134.299 11.1582 133.8 10.4429 133.464 9.6493C133.128 8.85569 132.962 8.00119 132.976 7.14021C132.962 6.27924 133.128 5.42473 133.464 4.63112C133.8 3.83751 134.299 3.12218 134.928 2.53069C136.164 1.30615 137.838 0.618591 139.583 0.618591C141.328 0.618591 143.002 1.30615 144.238 2.53069C144.859 3.12706 145.35 3.84399 145.681 4.63695C146.011 5.4299 146.174 6.28196 146.16 7.14021C146.174 7.99846 146.011 8.85052 145.681 9.64348C145.35 10.4364 144.859 11.1534 144.238 11.7497C143.624 12.3757 142.886 12.8686 142.072 13.1974C141.257 13.5262 140.382 13.6838 139.503 13.6603ZM134.272 53.0838V18.3835H144.802V53.0535L134.272 53.0838Z" fill="#0A1A49"/>
<path d="M153.457 53.0535V18.3835H163.987V21.924C165.985 19.0582 169.218 17.6254 173.686 17.6254C177.921 17.6254 181.225 19.0355 183.599 21.8558C185.973 24.6761 187.173 28.3935 187.198 33.0081V53.0535H176.683V34.8125C176.683 29.6773 174.8 27.1123 171.033 27.1173C170.066 27.0856 169.104 27.274 168.221 27.6682C167.338 28.0624 166.558 28.6519 165.939 29.3918C164.638 30.9081 163.987 33.1825 163.987 36.2151V53.0535H153.457Z" fill="#0A1A49"/>
<path d="M198.933 53.0535V27.4813H191.963V18.3835H198.933V14.5928C198.933 10.3371 200.27 6.95069 202.943 4.43365C204.28 3.1782 205.852 2.19715 207.57 1.54668C209.288 0.896205 211.118 0.58909 212.955 0.642922C215.075 0.591262 217.192 0.846653 219.238 1.40107V10.605C218.037 10.15 216.756 9.93866 215.471 9.98327C213.331 9.98327 211.806 10.4457 210.896 11.3707C209.986 12.2956 209.521 13.7993 209.501 15.8816V18.3835H219.223V27.4813H209.471V53.0535H198.933Z" fill="#0A1A49"/>
<path d="M224.606 53.0535V18.3835H235.144V23.5844C235.744 21.9578 236.843 20.5601 238.286 19.5889C239.789 18.5143 241.597 17.9434 243.448 17.9589C244.602 17.9508 245.753 18.091 246.872 18.3759V28.9975C245.37 28.4658 243.791 28.184 242.197 28.1636C241.204 28.1158 240.213 28.3041 239.308 28.7128C238.402 29.1215 237.607 29.7389 236.99 30.5138C235.686 32.2907 235.035 34.4582 235.144 36.6548V53.0535H224.606Z" fill="#0A1A49"/>
<path d="M267.856 53.8193C262.462 53.8193 258.035 52.1084 254.573 48.6866C251.111 45.2649 249.378 40.9182 249.373 35.6465C249.307 33.2527 249.741 30.8714 250.648 28.653C251.555 26.4346 252.915 24.4273 254.642 22.7581C256.384 21.0626 258.452 19.7342 260.722 18.8522C262.993 17.9703 265.419 17.553 267.856 17.6254C270.325 17.6125 272.774 18.06 275.077 18.9446C277.308 19.8042 279.347 21.0923 281.078 22.7353C282.915 24.5483 284.31 26.7553 285.157 29.1871C286.169 32.0578 286.619 35.0944 286.484 38.1332H259.636C259.715 39.0518 259.977 39.9454 260.408 40.7617C260.839 41.578 261.429 42.3005 262.145 42.8868C263.634 44.1605 265.728 44.7973 268.428 44.7973C269.873 44.8183 271.302 44.4988 272.599 43.8648C273.68 43.4043 274.567 42.5842 275.107 41.5449H286.126C285.021 45.1902 282.662 48.333 279.461 50.4228C276.036 52.7149 271.984 53.9009 267.856 53.8193ZM267.581 25.965C265.794 25.894 264.036 26.4286 262.595 27.4813C261.274 28.4854 260.329 29.8998 259.911 31.4995H274.833C274.456 29.7992 273.448 28.3024 272.012 27.3069C270.703 26.4292 269.16 25.9617 267.581 25.965Z" fill="#0A1A49"/>
<path d="M293.041 53.0535V18.3835H303.579V21.924C305.577 19.0582 308.807 17.6254 313.27 17.6254C317.5 17.6254 320.804 19.0355 323.183 21.8558C325.562 24.6761 326.759 28.3986 326.774 33.0233V53.0535H316.275V34.8125C316.275 29.6773 314.391 27.1123 310.624 27.1173C309.657 27.0845 308.695 27.2724 307.812 27.6666C306.929 28.0609 306.149 28.651 305.531 29.3918C304.23 30.9081 303.579 33.1825 303.579 36.2151V53.0535H293.041Z" fill="#0A1A49"/>
<path d="M48.9021 13.2281C49.7772 13.2467 50.6468 13.0868 51.4573 12.7582C52.2677 12.4296 53.0019 11.9393 53.6144 11.3176C54.2328 10.7197 54.7217 10.0024 55.0508 9.20965C55.3799 8.41691 55.5424 7.56559 55.5283 6.70807C55.5424 5.85056 55.3799 4.99923 55.0508 4.2065C54.7217 3.41376 54.2328 2.69639 53.6144 2.09855C52.3759 0.875383 50.7011 0.188904 48.9555 0.188904C47.2098 0.188904 45.535 0.875383 44.2965 2.09855C43.663 2.68804 43.1601 3.40247 42.8201 4.19618C42.48 4.98989 42.3103 5.84542 42.3217 6.70807C42.3073 7.56905 42.4735 8.42355 42.8096 9.21716C43.1457 10.0108 43.6443 10.7261 44.2737 11.3176C44.8745 11.9315 45.5947 12.4175 46.3904 12.7459C47.186 13.0743 48.0406 13.2384 48.9021 13.2281Z" fill="#0A1A49"/>
<path d="M78.0223 13.2281C78.8973 13.2467 79.767 13.0867 80.5774 12.7582C81.3879 12.4296 82.1221 11.9393 82.7346 11.3176C83.3555 10.7212 83.8465 10.0043 84.177 9.21133C84.5076 8.41838 84.6706 7.56632 84.6561 6.70807C84.6706 5.84982 84.5076 4.99776 84.177 4.2048C83.8465 3.41184 83.3555 2.69492 82.7346 2.09855C81.4984 0.874003 79.8245 0.186447 78.0795 0.186447C76.3345 0.186447 74.6606 0.874003 73.4244 2.09855C72.7936 2.68937 72.2936 3.4044 71.9561 4.19805C71.6187 4.99169 71.4514 5.84654 71.4647 6.70807C71.4504 7.56904 71.6166 8.42355 71.9526 9.21716C72.2887 10.0108 72.7873 10.7261 73.4167 11.3176C74.0144 11.9294 74.7307 12.4142 75.5224 12.7426C76.314 13.071 77.1645 13.2362 78.0223 13.2281Z" fill="#0A1A49"/>
<path d="M95.3311 78.8531L83.314 58.1558C83.3902 50.1801 83.3597 47.7768 83.314 39.8162C83.314 33.0687 83.2606 26.0862 83.314 19.2553C83.314 18.9824 83.314 18.7322 83.314 18.5351C83.3369 18.3032 83.3369 18.0695 83.314 17.8376H72.6389V26.9353H54.354V17.8376H43.534C43.5116 18.0898 43.5116 18.3435 43.534 18.5957C43.534 18.803 43.534 19.0557 43.534 19.3539C43.5798 26.5184 43.534 33.8496 43.534 40.9383C43.534 48.4742 43.473 50.4985 43.534 57.9814L31.4102 78.8759L39.1801 83.3338L48.9402 66.5257L58.685 83.311L63.3744 80.6196L68.0638 83.311L77.8163 66.5257L87.5611 83.311L95.3311 78.8531ZM63.3744 73.5461L54.354 58.0117V37.4584H72.7228V57.4583L63.3744 73.5461Z" fill="#0A1A49"/>
</svg>
