<svg width="323" height="292" viewBox="0 0 323 292" fill="none" xmlns="http://www.w3.org/2000/svg">
<path d="M0 28H323V286C323 289.314 320.314 292 317 292H6C2.68629 292 0 289.314 0 286V28Z" fill="#8DAAFF"/>
<g clip-path="url(#clip0_112_943)">
<path d="M287.376 2.62207C290.903 -0.873643 296.459 -0.873643 299.897 2.62207L308.274 11.2266L315.505 3.87695C316.126 3.25765 316.914 2.83873 317.77 2.67383C318.625 2.509 319.509 2.6052 320.311 2.9502C321.112 3.29527 321.796 3.8742 322.274 4.61328C322.753 5.35228 323.005 6.21886 323 7.10352V139.672C323 149.531 315.064 157.599 305.364 157.599H164.28C163.335 157.599 162.406 157.52 161.5 157.373C160.594 157.52 159.666 157.599 158.721 157.599H17.6357C7.93636 157.598 0.00011842 149.531 0 139.672V7.10352C-0.00511265 6.21879 0.248054 5.35232 0.726562 4.61328C1.20511 3.87428 1.88803 3.29529 2.68945 2.9502C3.49093 2.60514 4.37531 2.50903 5.23047 2.67383C6.08566 2.83867 6.87351 3.25759 7.49512 3.87695L14.7266 11.2266L23.1035 2.62207C26.5425 -0.873568 32.1851 -0.873618 35.624 2.62207L44.0898 11.2266L52.5547 2.62207C56.0818 -0.873643 61.6372 -0.873643 65.0762 2.62207L73.541 11.2266L82.0059 2.62207C82.8216 1.79113 83.7907 1.13144 84.8574 0.681641C85.9241 0.231873 87.0678 0 88.2227 0C89.3774 2.70525e-05 90.5212 0.231872 91.5879 0.681641C92.6545 1.13143 93.6237 1.7912 94.4395 2.62207L102.904 11.2266L111.281 2.62207C114.72 -0.873643 120.364 -0.873643 123.803 2.62207L132.268 11.2266L140.732 2.62207C144.26 -0.873643 149.815 -0.873643 153.254 2.62207L161.5 11.0918L169.747 2.62207C173.186 -0.873643 178.83 -0.873643 182.269 2.62207L190.733 11.2266L199.198 2.62207C202.725 -0.873643 208.281 -0.873643 211.72 2.62207L220.185 11.2266L228.649 2.62207C229.465 1.79117 230.434 1.13143 231.501 0.681641C232.568 0.231857 233.711 1.18597e-05 234.866 0C236.021 0 237.165 0.231846 238.231 0.681641C239.298 1.13144 240.267 1.79113 241.083 2.62207L249.548 11.2266L257.925 2.62207C261.364 -0.873643 267.007 -0.873643 270.446 2.62207L278.911 11.2266L287.376 2.62207ZM17.6357 85.8916V139.672H79.3604V85.8916H17.6357ZM96.9961 121.745V139.672H146.645V121.745H96.9961ZM243.64 121.745V139.672H305.364V121.745H243.64ZM176.356 85.8916V139.672H226.005V85.8916H176.356ZM96.9961 85.8916V103.818H146.645V85.8916H96.9961ZM243.64 85.8916V103.818H305.364V85.8916H243.64ZM17.6357 41.0742V67.9648H146.645V41.0742H17.6357ZM176.356 41.0742V67.9648H305.364V41.0742H176.356Z" fill="#8DAAFF"/>
</g>
<defs>
<clipPath id="clip0_112_943">
<rect width="323" height="30" fill="white"/>
</clipPath>
</defs>
</svg>
